<?xml version="1.0" standalone="no"?>
<!DOCTYPE svg PUBLIC "-//W3C//DTD SVG 20010904//EN"
 "http://www.w3.org/TR/2001/REC-SVG-20010904/DTD/svg10.dtd">
<svg version="1.0" xmlns="http://www.w3.org/2000/svg"
 width="1024.000000pt" height="222.000000pt" viewBox="0 0 1024.000000 222.000000"
 preserveAspectRatio="xMidYMid meet">

<g transform="translate(0.000000,222.000000) scale(0.100000,-0.100000)"
fill="#000000" stroke="none">
<path d="M938 1970 c-167 -41 -294 -115 -405 -234 -87 -94 -128 -163 -172
-289 -34 -99 -35 -107 -35 -252 -1 -127 3 -162 22 -228 84 -293 314 -509 609
-573 213 -46 470 13 650 150 355 269 417 801 135 1151 -184 230 -521 344 -804
275z m271 -363 c6 -8 12 -75 13 -168 l3 -154 165 -5 165 -5 0 -95 0 -95 -167
-3 -168 -2 0 -160 c0 -147 -1 -160 -19 -170 -29 -15 -156 -13 -170 3 -6 8 -12
75 -13 168 l-3 154 -165 5 -165 5 0 95 0 95 165 5 165 5 3 154 c1 93 7 160 13
168 8 9 37 13 89 13 52 0 81 -4 89 -13z"/>
<path d="M3090 1190 l0 -520 95 0 95 0 0 520 0 520 -95 0 -95 0 0 -520z"/>
<path d="M9130 1190 l0 -520 95 0 95 0 0 51 0 50 44 -36 c63 -51 132 -75 216
-75 140 0 249 72 312 205 29 62 33 82 36 172 5 123 -18 211 -73 286 -116 157
-362 181 -497 49 l-38 -36 0 187 0 187 -95 0 -95 0 0 -520z m456 85 c91 -27
144 -107 144 -217 0 -76 -23 -131 -73 -175 -91 -80 -227 -64 -292 36 -89 133
-25 327 117 361 48 11 50 11 104 -5z"/>
<path d="M2350 1160 l0 -490 285 0 285 0 0 80 0 80 -190 0 -190 0 0 130 0 130
165 0 165 0 0 80 0 80 -165 0 -165 0 0 120 0 120 190 0 190 0 0 80 0 80 -285
0 -285 0 0 -490z"/>
<path d="M7200 1160 l0 -490 95 0 95 0 2 208 3 207 208 3 207 2 0 -210 0 -210
100 0 100 0 0 490 0 490 -100 0 -100 0 0 -200 0 -200 -210 0 -210 0 0 200 0
200 -95 0 -95 0 0 -490z"/>
<path d="M5220 1546 l0 -95 -47 -3 -48 -3 0 -80 0 -80 48 -3 47 -3 0 -223 0
-224 28 -53 c41 -79 92 -103 234 -108 l108 -3 0 86 0 86 -69 0 c-104 0 -101
-7 -101 235 l0 204 83 3 82 3 3 83 3 82 -85 0 -85 0 -3 93 -3 92 -97 3 -98 3
0 -95z"/>
<path d="M3700 1445 c-110 -31 -190 -99 -239 -204 -24 -51 -26 -67 -26 -181 0
-121 1 -128 32 -191 39 -79 102 -140 181 -177 51 -24 69 -27 167 -27 98 0 116
3 167 27 74 34 141 97 173 161 l26 52 -106 3 -106 3 -26 -32 c-50 -59 -132
-75 -208 -40 -62 29 -105 86 -105 141 0 19 12 20 283 22 l282 3 -1 85 c-2 117
-29 187 -103 261 -40 40 -73 62 -116 78 -78 30 -200 37 -275 16z m210 -173
c43 -23 80 -75 80 -113 l0 -29 -180 0 c-201 0 -197 -2 -161 68 24 47 50 70 98
88 46 17 113 11 163 -14z"/>
<path d="M4570 1444 c-109 -29 -189 -98 -239 -203 -24 -51 -26 -67 -26 -181 0
-117 2 -129 29 -187 34 -73 112 -153 183 -185 41 -19 66 -23 163 -23 104 0
120 3 171 26 69 33 130 91 164 158 40 81 40 81 -77 81 l-103 0 -17 -30 c-26
-45 -74 -70 -136 -70 -120 0 -182 79 -182 231 0 146 66 229 181 229 57 0 106
-26 136 -72 l26 -38 98 0 c110 0 111 1 84 68 -69 166 -261 248 -455 196z"/>
<path d="M6095 1451 c-53 -13 -112 -49 -144 -88 l-31 -38 0 63 0 62 -95 0 -95
0 0 -390 0 -390 94 0 94 0 4 233 c3 210 5 235 23 266 33 55 65 73 144 79 l71
5 0 103 c0 114 2 111 -65 95z"/>
<path d="M6540 1446 c-117 -31 -209 -108 -258 -214 -34 -75 -42 -210 -17 -298
32 -112 105 -196 215 -247 37 -17 65 -21 160 -21 109 -1 118 1 182 31 37 17
87 51 111 75 150 150 151 419 3 572 -94 97 -260 139 -396 102z m215 -193 c59
-42 85 -100 85 -193 -1 -114 -37 -179 -122 -215 -100 -41 -203 0 -249 100 -21
45 -25 148 -8 208 13 46 76 113 121 126 53 16 128 5 173 -26z"/>
<path d="M8192 1168 c3 -315 6 -330 78 -412 99 -112 304 -128 418 -31 l42 37
0 -46 0 -46 100 0 100 0 0 390 0 390 -99 0 -100 0 -3 -259 c-3 -289 -3 -288
-78 -338 -69 -48 -193 -21 -236 50 -17 29 -20 59 -24 287 l-5 255 -98 3 -98 3
3 -283z"/>
</g>
</svg>
